<svg width="14" height="24" viewBox="0 0 14 24" fill="none" xmlns="http://www.w3.org/2000/svg">
<path d="M9.73295 11H8.85227C8.80019 10.7467 8.70904 10.5241 8.57884 10.3324C8.45099 10.1406 8.29474 9.97964 8.11009 9.84943C7.92779 9.71686 7.72538 9.61742 7.50284 9.55114C7.2803 9.48485 7.0483 9.4517 6.80682 9.4517C6.36648 9.4517 5.96757 9.56297 5.61009 9.78551C5.25497 10.008 4.97206 10.3359 4.76136 10.7692C4.55303 11.2024 4.44886 11.7339 4.44886 12.3636C4.44886 12.9934 4.55303 13.5249 4.76136 13.9581C4.97206 14.3913 5.25497 14.7192 5.61009 14.9418C5.96757 15.1643 6.36648 15.2756 6.80682 15.2756C7.0483 15.2756 7.2803 15.2424 7.50284 15.1761C7.72538 15.1098 7.92779 15.0116 8.11009 14.8814C8.29474 14.7488 8.45099 14.5866 8.57884 14.3949C8.70904 14.2008 8.80019 13.9782 8.85227 13.7273H9.73295C9.66667 14.099 9.54593 14.4316 9.37074 14.7251C9.19555 15.0187 8.97775 15.2685 8.71733 15.4744C8.45691 15.678 8.16454 15.8331 7.8402 15.9396C7.51823 16.0462 7.17377 16.0994 6.80682 16.0994C6.18655 16.0994 5.63494 15.9479 5.15199 15.6449C4.66903 15.3419 4.28906 14.911 4.01207 14.3523C3.73509 13.7936 3.59659 13.1307 3.59659 12.3636C3.59659 11.5966 3.73509 10.9337 4.01207 10.375C4.28906 9.81629 4.66903 9.38542 5.15199 9.08239C5.63494 8.77936 6.18655 8.62784 6.80682 8.62784C7.17377 8.62784 7.51823 8.68111 7.8402 8.78764C8.16454 8.89418 8.45691 9.05043 8.71733 9.25639C8.97775 9.45999 9.19555 9.70857 9.37074 10.0021C9.54593 10.2933 9.66667 10.6259 9.73295 11Z" fill="white" fill-opacity="0.6"/>
<circle cx="7" cy="12" r="6.5" stroke="white" stroke-opacity="0.7"/>
</svg>
