<svg width="52" height="52" viewBox="0 0 52 52" fill="none" xmlns="http://www.w3.org/2000/svg">
<circle cx="26" cy="26" r="25.5" stroke="white" stroke-opacity="0.7"/>
<path d="M31.5629 15.0046L28.7856 15C25.6655 15 23.6491 17.1251 23.6491 20.4142V22.9106H20.8567C20.6154 22.9106 20.42 23.1115 20.42 23.3594V26.9763C20.42 27.2241 20.6156 27.4249 20.8567 27.4249H23.6491V36.5514C23.6491 36.7993 23.8445 37 24.0858 37H27.7291C27.9704 37 28.1658 36.799 28.1658 36.5514V27.4249H31.4308C31.6721 27.4249 31.8675 27.2241 31.8675 26.9763L31.8688 23.3594C31.8688 23.2404 31.8227 23.1264 31.7409 23.0422C31.6592 22.9579 31.5478 22.9106 31.4319 22.9106H28.1658V20.7944C28.1658 19.7773 28.4017 19.2609 29.6916 19.2609L31.5625 19.2602C31.8035 19.2602 31.9989 19.0593 31.9989 18.8117V15.4532C31.9989 15.2058 31.8038 15.005 31.5629 15.0046Z" fill="white" fill-opacity="0.8"/>
</svg>
