<svg width="56" height="57" viewBox="0 0 56 57" fill="none" xmlns="http://www.w3.org/2000/svg">
<rect width="56.0003" height="56.5002" rx="28.0002" fill="#CAE9CF"/>
<path fill-rule="evenodd" clip-rule="evenodd" d="M33.775 14.0002C34.7215 14.0002 35.6665 14.1337 36.565 14.4352C42.1015 16.2352 44.0965 22.3102 42.43 27.6202C41.485 30.3337 39.94 32.8102 37.9165 34.8337C35.02 37.6387 31.8415 40.1287 28.42 42.2737L28.045 42.5002L27.655 42.2587C24.2215 40.1287 21.025 37.6387 18.1015 34.8187C16.0915 32.7952 14.545 30.3337 13.585 27.6202C11.89 22.3102 13.885 16.2352 19.4815 14.4037C19.9165 14.2537 20.365 14.1487 20.815 14.0902H20.995C21.4165 14.0287 21.835 14.0002 22.255 14.0002H22.42C23.365 14.0287 24.28 14.1937 25.1665 14.4952H25.255C25.315 14.5237 25.36 14.5552 25.39 14.5837C25.7215 14.6902 26.035 14.8102 26.335 14.9752L26.905 15.2302C27.0428 15.3037 27.1974 15.4159 27.331 15.5129C27.4156 15.5744 27.4918 15.6298 27.55 15.6652C27.5745 15.6797 27.5994 15.6942 27.6245 15.7088C27.7531 15.7839 27.8871 15.8621 28 15.9487C29.6665 14.6752 31.69 13.9852 33.775 14.0002ZM37.765 24.8002C38.38 24.7837 38.905 24.2902 38.95 23.6587V23.4802C38.995 21.3787 37.7215 19.4752 35.785 18.7402C35.17 18.5287 34.495 18.8602 34.27 19.4902C34.06 20.1202 34.39 20.8102 35.02 21.0337C35.9815 21.3937 36.625 22.3402 36.625 23.3887V23.4352C36.5965 23.7787 36.7 24.1102 36.91 24.3652C37.12 24.6202 37.435 24.7687 37.765 24.8002Z" fill="#200E32"/>
</svg>
