<svg width="52" height="52" viewBox="0 0 52 52" fill="none" xmlns="http://www.w3.org/2000/svg">
<circle cx="26" cy="26" r="25.5" stroke="white" stroke-opacity="0.7"/>
<path fill-rule="evenodd" clip-rule="evenodd" d="M16 26C16 21.8086 16 19.7129 17.0504 18.2672C17.3896 17.8003 17.8003 17.3896 18.2672 17.0504C19.7129 16 21.8086 16 26 16C30.1914 16 32.2871 16 33.7328 17.0504C34.1997 17.3896 34.6104 17.8003 34.9496 18.2672C36 19.7129 36 21.8086 36 26C36 30.1914 36 32.2871 34.9496 33.7328C34.6104 34.1997 34.1997 34.6104 33.7328 34.9496C32.2871 36 30.1914 36 26 36C21.8086 36 19.7129 36 18.2672 34.9496C17.8003 34.6104 17.3896 34.1997 17.0504 33.7328C16 32.2871 16 30.1914 16 26ZM25.9992 20.7051C23.0755 20.7051 20.7051 23.0755 20.7051 25.9992C20.7051 28.9229 23.0755 31.2933 25.9992 31.2933C28.9229 31.2933 31.2933 28.9229 31.2933 25.9992C31.2933 23.0755 28.9229 20.7051 25.9992 20.7051ZM25.9992 29.308C24.1754 29.308 22.6904 27.823 22.6904 25.9992C22.6904 24.174 24.1754 22.6904 25.9992 22.6904C27.823 22.6904 29.308 24.174 29.308 25.9992C29.308 27.823 27.823 29.308 25.9992 29.308ZM32.3972 20.309C32.3972 20.6986 32.0814 21.0144 31.6918 21.0144C31.3022 21.0144 30.9863 20.6986 30.9863 20.309C30.9863 19.9194 31.3022 19.6035 31.6918 19.6035C32.0814 19.6035 32.3972 19.9194 32.3972 20.309Z" fill="white" fill-opacity="0.8"/>
</svg>
