<svg width="56" height="56" viewBox="0 0 56 56" fill="none" xmlns="http://www.w3.org/2000/svg">
<rect width="55.5" height="56" rx="27.75" fill="#CAE9CF"/>
<path fill-rule="evenodd" clip-rule="evenodd" d="M23.1386 34.585H31.2178C31.8267 34.585 32.3317 34.075 32.3317 33.46C32.3317 32.845 31.8267 32.35 31.2178 32.35H23.1386C22.5297 32.35 22.0248 32.845 22.0248 33.46C22.0248 34.075 22.5297 34.585 23.1386 34.585ZM28.1584 24.85H23.1386C22.5297 24.85 22.0248 25.36 22.0248 25.975C22.0248 26.59 22.5297 27.085 23.1386 27.085H28.1584C28.7673 27.085 29.2723 26.59 29.2723 25.975C29.2723 25.36 28.7673 24.85 28.1584 24.85ZM38.7571 23.5384C39.1062 23.5344 39.4863 23.53 39.8317 23.53C40.203 23.53 40.5 23.83 40.5 24.205V36.265C40.5 39.985 37.5149 43 33.8317 43H22.0099C18.1485 43 15 39.835 15 35.935V19.765C15 16.045 18 13 21.698 13H29.6287C30.0149 13 30.3119 13.315 30.3119 13.69V18.52C30.3119 21.265 32.5545 23.515 35.2723 23.53C35.9071 23.53 36.4668 23.5347 36.9565 23.5389C37.3376 23.5421 37.6763 23.545 37.9752 23.545C38.1867 23.545 38.4607 23.5418 38.7571 23.5384ZM39.1666 21.349C37.9458 21.3535 36.5067 21.349 35.4716 21.3385C33.829 21.3385 32.476 19.972 32.476 18.313V14.359C32.476 13.7125 33.2528 13.3915 33.6968 13.858C34.5016 14.7031 35.6078 15.8652 36.7086 17.0216C37.8039 18.1721 38.8939 19.3171 39.676 20.1385C40.1097 20.593 39.7919 21.3475 39.1666 21.349Z" fill="#200E32"/>
</svg>
