<svg width="56" height="56" viewBox="0 0 56 56" fill="none" xmlns="http://www.w3.org/2000/svg">
<rect width="56" height="56" rx="28" fill="#CAE9CF"/>
<path d="M37.75 16.165L30.265 13.36C29.02 12.895 26.98 12.895 25.735 13.36L18.25 16.165C16.525 16.81 15.115 18.85 15.115 20.68V31.825C15.115 33.595 16.285 35.92 17.71 36.985L24.16 41.8C26.275 43.39 29.755 43.39 31.87 41.8L38.32 36.985C39.745 35.92 40.915 33.595 40.915 31.825V20.68C40.885 18.85 39.475 16.81 37.75 16.165ZM27.895 20.545C29.665 20.545 31.105 21.985 31.105 23.755C31.105 25.495 29.74 26.89 28.015 26.95H27.985H27.955C27.925 26.95 27.895 26.95 27.865 26.95C26.065 26.89 24.715 25.495 24.715 23.755C24.7 21.985 26.14 20.545 27.895 20.545ZM31.285 34.54C30.37 35.14 29.185 35.455 28 35.455C26.815 35.455 25.615 35.155 24.715 34.54C23.86 33.97 23.395 33.19 23.38 32.335C23.38 31.495 23.86 30.685 24.715 30.115C26.53 28.915 29.485 28.915 31.3 30.115C32.155 30.685 32.635 31.465 32.635 32.32C32.62 33.16 32.14 33.97 31.285 34.54Z" fill="#292D32"/>
</svg>
