<svg width="56" height="56" viewBox="0 0 56 56" fill="none" xmlns="http://www.w3.org/2000/svg">
<rect width="56" height="56" rx="28" fill="#CAE9CF"/>
<path d="M34.21 14.4399L20.665 18.9399C11.56 21.9849 11.56 26.9499 20.665 29.9799L24.685 31.3149L26.02 35.3349C29.05 44.4399 34.03 44.4399 37.06 35.3349L41.575 21.8049C43.585 15.7299 40.285 12.4149 34.21 14.4399ZM34.69 22.5099L28.99 28.2399C28.765 28.4649 28.48 28.5699 28.195 28.5699C27.91 28.5699 27.625 28.4649 27.4 28.2399C26.965 27.8049 26.965 27.0849 27.4 26.6499L33.1 20.9199C33.535 20.4849 34.255 20.4849 34.69 20.9199C35.125 21.3549 35.125 22.0749 34.69 22.5099Z" fill="#292D32"/>
</svg>
